<?xml version="1.0" standalone="no"?>
<!DOCTYPE svg PUBLIC "-//W3C//DTD SVG 20010904//EN"
 "http://www.w3.org/TR/2001/REC-SVG-20010904/DTD/svg10.dtd">
<svg version="1.0" xmlns="http://www.w3.org/2000/svg"
 width="1080.000000pt" height="1080.000000pt" viewBox="0 0 1080.000000 1080.000000"
 preserveAspectRatio="xMidYMid meet">

<g transform="translate(0.000000,1080.000000) scale(0.100000,-0.100000)"
fill="#000000" stroke="none">
<path d="M0 5400 l0 -5400 5400 0 5400 0 0 5400 0 5400 -825 0 c-454 0 -825
-3 -825 -6 0 -13 42 -74 50 -74 19 0 61 -91 74 -158 15 -77 56 -151 132 -232
63 -68 172 -216 195 -265 26 -55 16 -141 -23 -197 -17 -25 -20 -26 -46 -12
-26 12 -92 92 -92 110 0 4 -15 25 -33 48 -18 23 -45 61 -61 86 -16 25 -55 77
-86 115 -31 39 -61 81 -67 95 -41 89 -53 124 -63 183 -5 36 -19 87 -31 113
-11 26 -25 81 -31 121 l-12 73 -4528 0 -4528 0 0 -5400z m3350 4970 c0 -5 -5
-10 -11 -10 -5 0 -7 5 -4 10 3 6 8 10 11 10 2 0 4 -4 4 -10z m-83 -20 c40 0
113 -24 113 -37 0 -7 10 -13 22 -13 12 0 30 -7 40 -17 17 -16 17 -17 -6 -47
-13 -17 -26 -41 -30 -53 -4 -11 -13 -27 -21 -33 -8 -7 -15 -25 -15 -41 0 -19
-5 -29 -15 -29 -9 0 -12 6 -8 16 4 12 2 15 -8 12 -20 -7 -24 -38 -5 -38 8 0
18 -5 22 -12 5 -8 0 -9 -15 -5 -19 5 -20 3 -10 -10 11 -13 9 -14 -11 -11 -23
3 -25 7 -22 43 2 22 9 43 15 47 9 6 9 8 0 8 -17 0 -44 -43 -45 -72 0 -40 -8
-69 -17 -63 -5 3 -7 15 -4 28 3 16 2 18 -5 9 -7 -10 -11 -5 -16 22 -7 38 -42
79 -59 69 -6 -4 -2 -13 9 -22 23 -19 31 -91 10 -91 -9 0 -12 -9 -9 -27 3 -16
1 -24 -4 -18 -4 6 -24 15 -43 22 -79 26 -85 25 -37 -7 48 -33 56 -47 35 -68
-15 -15 -28 -15 -28 -1 0 5 5 7 10 4 6 -3 10 -1 10 4 0 6 -8 11 -17 11 -20 -1
-53 -23 -53 -35 0 -17 -96 -101 -110 -97 -8 3 -11 -1 -7 -10 5 -15 -24 -48
-43 -48 -5 0 -8 -6 -6 -12 1 -7 1 -10 -1 -5 -3 4 -12 7 -20 7 -11 0 -14 8 -11
29 2 17 1 28 -3 26 -4 -3 -9 2 -13 10 -9 25 -28 18 -20 -7 6 -21 6 -22 -12 -8
-15 12 -14 9 3 -13 17 -22 20 -34 13 -53 -8 -19 -6 -24 8 -25 15 -1 15 -2 1
-6 -13 -3 -39 -42 -39 -58 0 -3 10 -5 22 -5 37 0 11 -12 -33 -16 -29 -3 -48 1
-60 12 -17 15 -18 15 -7 -17 6 -19 12 -40 14 -46 2 -7 10 -10 19 -7 18 7 20
-9 3 -24 -7 -5 -28 -13 -45 -17 -19 -4 -33 -13 -33 -21 0 -9 -4 -12 -10 -9 -5
3 -10 -2 -11 -12 -1 -13 -3 -11 -9 7 -4 14 -8 19 -9 11 -1 -7 -7 -11 -16 -7
-8 3 -15 1 -15 -4 0 -6 -6 -9 -12 -7 -7 1 -13 -7 -13 -18 0 -13 -7 -20 -19
-20 -18 0 -26 9 -41 45 -13 32 -32 60 -38 54 -3 -3 1 -22 10 -41 12 -30 12
-38 1 -45 -10 -8 -10 -9 2 -6 8 3 23 -4 33 -14 14 -15 14 -18 2 -18 -18 0 -20
-21 -2 -39 10 -11 7 -13 -15 -9 -16 3 -28 1 -28 -3 0 -5 -13 -6 -30 -2 -20 4
-30 2 -30 -7 0 -7 7 -10 15 -7 8 4 17 2 20 -4 8 -13 -4 -49 -16 -49 -6 0 -7 5
-4 10 3 6 3 15 0 20 -11 17 -35 -9 -35 -36 0 -13 -4 -25 -10 -25 -5 -1 -15 -2
-20 -3 -6 0 -15 -7 -19 -15 -7 -11 -11 -10 -20 5 -10 18 -10 18 -11 -3 0 -14
6 -23 15 -23 8 0 15 -4 15 -10 0 -5 -10 -10 -22 -10 -13 0 -34 -1 -46 -1 -13
0 -30 8 -37 17 -7 10 -19 15 -29 11 -20 -8 -21 -27 -1 -27 8 0 15 -5 15 -10 0
-6 -11 -8 -25 -4 -27 7 -32 -4 -15 -37 15 -27 -7 -25 -38 4 -22 20 -24 20 -21
3 2 -11 17 -24 34 -29 39 -12 55 -26 55 -44 0 -10 -6 -13 -18 -8 -37 14 -72
17 -72 6 0 -6 7 -11 15 -11 18 0 20 -16 3 -23 -10 -4 -9 -8 2 -17 12 -9 11
-10 -7 -5 -17 5 -23 2 -23 -9 0 -9 -3 -16 -6 -16 -10 0 -34 28 -34 39 0 6 -7
11 -15 11 -8 0 -15 -7 -15 -15 0 -8 5 -15 12 -15 6 0 8 -3 5 -7 -4 -3 -15 1
-25 11 -11 9 -26 14 -35 11 -8 -4 -18 -2 -22 4 -3 6 -1 11 6 11 7 0 10 2 7 5
-3 3 -13 3 -22 -1 -16 -6 -16 -8 0 -25 10 -11 15 -21 13 -23 -5 -6 -68 52 -96
87 -12 16 -24 23 -28 17 -3 -5 3 -20 14 -31 19 -21 19 -23 3 -35 -20 -16 -9
-18 18 -4 14 8 21 5 34 -15 19 -29 20 -39 4 -29 -10 6 -10 4 0 -8 11 -14 8
-16 -20 -21 -18 -3 -37 0 -43 6 -7 7 -4 8 8 4 12 -4 16 -3 11 4 -3 6 -15 8
-25 6 -14 -4 -19 -1 -17 11 2 12 -3 16 -15 14 -16 -3 -18 2 -12 41 5 29 3 47
-4 51 -6 4 -11 24 -11 44 0 20 -5 44 -10 52 -7 12 -10 8 -10 -15 0 -16 -5 -37
-11 -45 -9 -13 -10 -13 -6 1 3 9 1 21 -5 27 -14 14 -19 62 -7 62 5 0 9 -6 9
-12 0 -7 5 -5 11 6 10 17 13 15 30 -20 l18 -39 -6 53 c-4 40 -2 52 8 52 11 0
11 2 -1 10 -12 8 -12 11 3 28 30 33 18 44 -13 12 -16 -16 -32 -30 -34 -30 -12
0 112 204 156 256 167 200 261 292 393 388 60 44 137 103 170 131 128 110 267
201 365 239 51 20 212 56 252 56 14 0 28 -5 30 -10 5 -17 68 0 68 18 0 13 3
13 12 4 7 -7 22 -12 35 -12z m218 -110 c-9 -14 9 -12 24 3 10 10 11 8 5 -6 -4
-12 -2 -17 7 -15 19 4 25 -52 7 -64 -10 -7 -10 -11 -1 -14 14 -6 5 -34 -16
-52 -13 -11 -13 -12 -1 -7 8 4 6 -1 -4 -9 -11 -9 -26 -16 -34 -16 -8 0 -12 -6
-8 -15 3 -8 1 -15 -3 -15 -17 0 -21 31 -7 53 7 12 17 36 21 52 l7 30 -26 -24
c-21 -20 -26 -21 -26 -8 0 26 44 117 57 117 2 0 1 -4 -2 -10z m3884 -54 c15
-59 14 -103 -1 -109 -7 -2 -28 2 -47 9 -71 29 -101 10 -101 -65 0 -15 -9 -37
-20 -49 -11 -12 -20 -26 -20 -32 0 -6 -7 -22 -16 -35 -25 -38 -79 -35 -102 5
-15 27 -42 41 -42 23 0 -11 -50 -33 -73 -33 -10 0 -40 -22 -68 -49 -41 -40
-49 -54 -49 -85 0 -25 -5 -39 -16 -43 -21 -8 -81 14 -108 38 -11 11 -30 19
-41 19 -19 0 -23 -7 -29 -47 -3 -27 -9 -60 -12 -74 -6 -26 -4 -27 123 -69 469
-156 984 -438 1385 -759 164 -131 477 -436 569 -556 13 -16 32 -39 42 -50 10
-11 58 -72 106 -135 450 -592 744 -1288 845 -2003 38 -266 41 -317 40 -637 -1
-330 -9 -439 -59 -770 -17 -115 -81 -369 -137 -540 -87 -268 -247 -638 -286
-659 -37 -20 -97 -13 -125 13 -47 43 -45 78 13 201 324 690 451 1437 374 2189
-64 623 -278 1254 -591 1739 -116 180 -143 220 -224 327 -482 641 -1186 1158
-1913 1404 -207 70 -622 176 -791 201 -332 49 -730 54 -1080 14 -242 -27 -603
-108 -835 -188 -156 -53 -394 -151 -413 -170 -6 -6 -16 -11 -22 -11 -14 0
-220 -106 -257 -131 -14 -11 -29 -19 -33 -19 -24 0 -286 -172 -460 -303 -211
-158 -455 -389 -646 -612 -314 -366 -557 -780 -728 -1240 -293 -787 -337
-1676 -123 -2485 70 -263 174 -545 277 -751 42 -83 42 -125 -2 -165 -32 -30
-97 -32 -130 -5 -55 46 -229 470 -314 765 -120 413 -163 737 -163 1211 0 311
4 372 40 622 107 747 403 1432 891 2062 207 268 518 571 812 791 18 14 46 35
61 48 15 12 31 22 34 22 4 0 33 19 64 42 65 49 160 108 173 108 5 0 9 4 9 9 0
5 6 11 13 13 36 9 261 146 268 163 4 11 8 15 8 8 1 -16 35 -5 156 52 309 145
700 266 1070 330 257 45 428 58 735 58 314 0 471 -13 770 -63 155 -27 256 -37
224 -24 -13 5 4 54 19 54 5 0 6 4 3 8 -3 5 2 18 10 30 13 18 25 22 75 22 55 0
76 11 47 24 -10 5 -10 7 0 12 6 3 12 16 12 29 0 13 5 27 10 30 6 3 10 15 10
26 0 26 20 33 65 20 34 -9 38 -8 78 30 53 50 82 50 133 4 21 -19 41 -35 45
-35 30 0 26 94 -5 125 -18 19 -31 59 -22 73 3 5 26 15 51 22 42 12 59 11 167
-6 28 -5 49 0 78 15 22 12 60 21 83 22 23 0 51 4 62 9 35 15 42 11 54 -34z
m-3699 -130 c0 -11 -19 -15 -25 -6 -3 5 1 10 9 10 9 0 16 -2 16 -4z m-38 -38
c-7 -7 -12 -8 -12 -2 0 14 12 26 19 19 2 -3 -1 -11 -7 -17z m-102 -8 c-6 -11
-13 -20 -16 -20 -2 0 0 9 6 20 6 11 13 20 16 20 2 0 0 -9 -6 -20z m45 10 c-3
-5 -11 -10 -16 -10 -6 0 -7 5 -4 10 3 6 11 10 16 10 6 0 7 -4 4 -10z m-5 -24
c0 -2 -12 -12 -27 -21 l-28 -18 19 21 c17 20 36 29 36 18z m-330 -20 c0 -2 -7
-6 -15 -10 -8 -3 -15 -1 -15 4 0 6 7 10 15 10 8 0 15 -2 15 -4z m90 -6 c0 -5
-2 -10 -4 -10 -3 0 -8 5 -11 10 -3 6 -1 10 4 10 6 0 11 -4 11 -10z m4070 -13
c0 -13 -8 -31 -18 -41 -18 -16 -19 -15 -20 16 -1 30 11 47 31 48 4 0 7 -11 7
-23z m-4070 -17 c0 -5 -4 -10 -10 -10 -5 0 -10 5 -10 10 0 6 5 10 10 10 6 0
10 -4 10 -10z m240 -15 c-7 -8 -20 -15 -29 -14 -11 0 -9 3 7 9 12 5 22 15 22
21 0 7 3 9 6 6 4 -4 1 -13 -6 -22z m-370 -5 c0 -5 -5 -10 -11 -10 -5 0 -7 5
-4 10 3 6 8 10 11 10 2 0 4 -4 4 -10z m-30 -21 c0 -6 -4 -7 -10 -4 -5 3 -10
11 -10 16 0 6 5 7 10 4 6 -3 10 -11 10 -16z m537 -25 c-3 -3 -12 -4 -19 -1 -8
3 -5 6 6 6 11 1 17 -2 13 -5z m-47 -14 c0 -5 -8 -10 -17 -10 -15 0 -16 2 -3
10 19 12 20 12 20 0z m-534 -37 c-11 -11 -17 4 -9 23 7 18 8 18 11 1 2 -10 1
-21 -2 -24z m3964 4 c0 -28 -17 -47 -36 -40 -17 6 -18 50 -1 56 26 11 37 6 37
-16z m-3650 10 c0 -12 -41 -49 -48 -43 -4 4 4 16 17 27 23 18 31 23 31 16z
m3855 -37 c-3 -5 -11 -10 -16 -10 -6 0 -7 5 -4 10 3 6 11 10 16 10 6 0 7 -4 4
-10z m-3905 -25 c0 -2 -7 -5 -15 -9 -9 -3 -15 0 -15 9 0 9 6 12 15 9 8 -4 15
-7 15 -9z m0 -25 c0 -5 -7 -10 -16 -10 -8 0 -12 5 -9 10 3 6 10 10 16 10 5 0
9 -4 9 -10z m150 -14 c0 -3 -4 -8 -10 -11 -5 -3 -10 -1 -10 4 0 6 5 11 10 11
6 0 10 -2 10 -4z m47 -32 c-3 -3 -12 -4 -19 -1 -8 3 -5 6 6 6 11 1 17 -2 13
-5z m3266 -30 c-9 -23 -23 -16 -23 12 0 22 2 24 14 14 8 -6 12 -18 9 -26z
m-3436 -30 c30 -30 31 -34 16 -43 -10 -5 -15 -13 -11 -17 4 -4 14 -1 23 6 13
11 15 8 14 -16 0 -16 -3 -24 -5 -18 -3 7 -14 10 -24 7 -12 -3 -20 0 -20 7 0
14 -19 34 -43 43 -10 4 -17 15 -15 24 2 10 -2 17 -10 15 -10 -2 -10 2 0 17 15
24 33 17 75 -25z m238 16 c-3 -5 -11 -10 -16 -10 -6 0 -7 5 -4 10 3 6 11 10
16 10 6 0 7 -4 4 -10z m-798 -6 c-3 -3 -12 -4 -19 -1 -8 3 -5 6 6 6 11 1 17
-2 13 -5z m483 -24 c0 -5 -4 -10 -9 -10 -10 0 -8 -21 4 -52 4 -10 3 -18 -3
-18 -6 0 -12 5 -14 12 -3 7 -12 9 -23 4 -16 -6 -17 -9 -5 -16 13 -8 12 -12 -3
-27 -10 -10 -17 -13 -16 -8 1 6 0 19 -1 30 -1 16 -4 14 -13 -10 -14 -36 -37
-44 -37 -12 0 12 -3 31 -6 42 -4 17 4 26 43 48 50 27 83 34 83 17z m27 -52
c-3 -8 -6 -5 -6 6 -1 11 2 17 5 13 3 -3 4 -12 1 -19z m-607 2 c0 -5 -4 -10
-10 -10 -5 0 -10 5 -10 10 0 6 5 10 10 10 6 0 10 -4 10 -10z m-2040 -18 c0
-10 -5 -23 -12 -30 -9 -9 -9 -12 3 -12 13 -1 -47 -39 -62 -40 -4 0 -9 11 -12
25 -3 20 3 31 27 50 37 29 56 32 56 7z m2480 -12 c0 -5 -5 -10 -11 -10 -5 0
-7 5 -4 10 3 6 8 10 11 10 2 0 4 -4 4 -10z m-10 -40 c0 -5 -4 -10 -10 -10 -5
0 -10 5 -10 10 0 6 5 10 10 10 6 0 10 -4 10 -10z m122 -12 c-7 -7 -12 -8 -12
-2 0 14 12 26 19 19 2 -3 -1 -11 -7 -17z m-39 -46 c-3 -12 -9 -22 -14 -22 -12
0 -11 7 3 30 15 24 19 21 11 -8z m-83 3 c0 -8 -2 -15 -4 -15 -2 0 -6 7 -10 15
-3 8 -1 15 4 15 6 0 10 -7 10 -15z m-2530 -34 c-1 -22 -35 -61 -54 -61 -23 0
-31 26 -18 55 8 18 19 23 41 23 22 -1 31 -6 31 -17z m2510 9 c12 -8 12 -10 -5
-11 -19 0 -19 -1 2 -11 22 -11 38 -36 28 -46 -2 -3 -13 6 -24 19 -11 13 -23
21 -27 17 -4 -4 -1 -14 6 -23 7 -8 9 -15 4 -15 -5 0 -1 -5 9 -11 9 -6 15 -15
12 -20 -4 -5 -11 -7 -16 -4 -5 4 -9 -1 -9 -9 0 -9 -4 -16 -10 -16 -5 0 -10 7
-10 15 0 8 -10 25 -22 37 -15 15 -17 20 -5 15 9 -3 19 -2 22 3 4 6 -2 10 -12
11 -16 0 -15 2 5 16 12 8 22 22 22 29 0 16 9 17 30 4z m-94 -56 c-3 -7 2 -18
10 -24 20 -18 17 -33 -6 -27 -11 3 -18 1 -14 -4 3 -5 13 -9 23 -9 10 0 21 -9
24 -20 4 -16 0 -20 -20 -20 -13 0 -21 -4 -18 -10 3 -5 -1 -10 -9 -10 -10 0
-13 7 -11 22 6 28 -23 50 -55 42 l-25 -6 24 21 c13 12 20 21 16 21 -5 0 2 11
14 24 23 25 57 25 47 0z m149 6 c3 -5 1 -10 -4 -10 -6 0 -11 5 -11 10 0 6 2
10 4 10 3 0 8 -4 11 -10z m-2 -47 c6 -32 3 -38 -12 -28 -13 8 -15 55 -2 55 5
0 11 -12 14 -27z m-343 13 c0 -3 -4 -8 -10 -11 -5 -3 -10 -1 -10 4 0 6 5 11
10 11 6 0 10 -2 10 -4z m420 -26 c0 -5 -5 -10 -11 -10 -5 0 -7 5 -4 10 3 6 8
10 11 10 2 0 4 -4 4 -10z m-2670 -62 c0 10 5 10 21 2 14 -8 18 -17 14 -28 -4
-9 -8 -22 -9 -29 -1 -7 -5 -16 -9 -19 -4 -4 -7 -20 -7 -36 0 -15 -4 -28 -8
-28 -4 0 -18 -21 -31 -47 -41 -86 -127 -207 -186 -262 -52 -49 -59 -53 -70
-37 -24 33 1 98 63 163 8 7 30 37 50 66 20 28 42 58 49 65 12 13 17 33 14 59
-1 6 12 21 29 33 16 12 30 29 30 39 0 10 5 33 12 51 10 31 12 32 25 15 7 -11
13 -13 13 -7z m2285 -35 c0 -32 3 -64 8 -70 6 -9 5 -13 -2 -13 -6 0 -11 5 -11
10 0 7 -6 7 -19 1 -15 -9 -20 -7 -24 11 -5 17 -9 19 -19 10 -15 -12 -59 -12
-52 0 3 4 14 8 25 8 11 0 30 11 43 25 13 13 26 22 29 18 4 -3 7 5 7 19 0 20 7
38 15 38 1 0 1 -26 0 -57z m-1135 32 c0 -8 -4 -15 -10 -15 -5 0 -7 7 -4 15 4
8 8 15 10 15 2 0 4 -7 4 -15z m1210 -96 c0 -14 -17 -10 -23 5 -4 10 -1 13 9 9
7 -3 14 -9 14 -14z m-167 -34 c4 -8 2 -17 -3 -20 -6 -4 -10 -1 -10 5 0 6 -10
15 -22 20 -22 9 -22 9 3 9 15 1 29 -6 32 -14z m-563 -25 c0 -5 -4 -10 -10 -10
-5 0 -10 5 -10 10 0 6 5 10 10 10 6 0 10 -4 10 -10z m500 -6 c0 -14 -3 -14
-15 -4 -8 7 -15 14 -15 16 0 2 7 4 15 4 8 0 15 -7 15 -16z m-996 -27 c4 -19 3
-26 -4 -22 -5 3 -10 18 -10 32 0 32 5 28 14 -10z m1031 24 c3 -5 1 -12 -5 -16
-5 -3 -10 1 -10 9 0 18 6 21 15 7z m-188 -27 c-3 -3 -12 -4 -19 -1 -8 3 -5 6
6 6 11 1 17 -2 13 -5z m43 -49 c0 -17 -27 -32 -37 -21 -4 3 2 13 13 21 24 18
24 18 24 0z m-880 -20 c0 -9 -6 -12 -16 -8 -13 5 -13 7 -2 14 17 11 18 11 18
-6z m902 -22 c11 -9 18 -11 18 -5 0 18 14 14 26 -6 10 -15 8 -18 -7 -19 -10
-1 -21 2 -24 7 -3 5 -19 7 -34 4 -18 -4 -32 -1 -36 6 -6 10 -1 11 21 7 16 -3
23 -4 17 -1 -14 6 -18 24 -6 24 3 0 15 -7 25 -17z m-682 -28 c7 -9 8 -15 2
-15 -5 0 -12 7 -16 15 -3 8 -4 15 -2 15 2 0 9 -7 16 -15z m610 -6 c0 -5 -4 -9
-10 -9 -5 0 -10 7 -10 16 0 8 5 12 10 9 6 -3 10 -10 10 -16z m-645 1 c3 -5 1
-10 -4 -10 -6 0 -11 5 -11 10 0 6 2 10 4 10 3 0 8 -4 11 -10z m-31 -25 c4 -13
2 -14 -14 -5 -23 13 -26 20 -6 20 8 0 16 -7 20 -15z m116 -30 c0 -8 -4 -15
-10 -15 -5 0 -7 7 -4 15 4 8 8 15 10 15 2 0 4 -7 4 -15z m-226 -61 c9 -8 16
-22 16 -31 0 -11 -6 -8 -20 10 -29 37 -26 52 4 21z m-56 -6 c16 -16 15 -28 -1
-28 -7 0 -18 9 -25 20 -10 16 -10 20 1 20 7 0 18 -5 25 -12z m732 -18 c0 -5
-2 -10 -4 -10 -3 0 -8 5 -11 10 -3 6 -1 10 4 10 6 0 11 -4 11 -10z m-695 -30
c-3 -5 3 -14 13 -19 22 -12 36 -51 19 -51 -7 0 -21 14 -32 30 -11 16 -24 30
-29 30 -5 0 -3 7 4 15 13 15 35 11 25 -5z m-780 -32 c48 -22 27 -111 -43 -175
-50 -47 -63 -51 -87 -27 -21 21 -16 191 6 205 20 12 93 11 124 -3z m1435 -22
c0 -3 -4 -8 -10 -11 -5 -3 -10 -1 -10 4 0 6 5 11 10 11 6 0 10 -2 10 -4z
m-2054 -76 c6 0 32 -20 57 -44 45 -43 225 -167 259 -179 10 -3 20 -2 23 3 10
17 35 11 35 -7 -1 -45 -18 -51 -152 -54 -89 -2 -170 35 -256 117 -56 54 -62
63 -62 99 0 57 21 79 65 70 11 -3 25 -5 31 -5z m3251 -415 c23 -26 30 -75 17
-110 -4 -9 -51 -47 -104 -85 -54 -38 -104 -75 -112 -82 -7 -7 -51 -45 -98 -84
-369 -310 -669 -724 -873 -1204 -141 -331 -222 -719 -234 -1115 -14 -466 69
-898 256 -1339 183 -432 517 -879 875 -1171 27 -22 54 -44 60 -50 83 -73 318
-227 476 -312 834 -446 1813 -495 2695 -136 128 52 336 159 456 233 88 55 258
174 295 206 12 11 46 39 75 64 480 402 831 942 1008 1552 135 464 157 1007 60
1483 -34 168 -39 185 -116 415 -59 175 -67 196 -144 357 -64 134 -205 367
-295 490 -178 241 -458 515 -715 701 -48 34 -90 69 -93 78 -26 68 21 144 90
144 28 0 55 -12 109 -49 40 -27 83 -58 96 -69 13 -11 60 -49 104 -84 89 -70
319 -295 413 -403 164 -189 371 -500 470 -706 82 -171 187 -442 222 -573 29
-113 78 -350 97 -481 15 -97 18 -183 18 -445 -1 -351 -11 -460 -71 -730 -205
-924 -814 -1736 -1653 -2205 -545 -304 -1208 -456 -1818 -416 -762 50 -1401
304 -1978 786 -193 161 -433 418 -555 595 -13 19 -27 37 -30 40 -3 3 -26 37
-51 75 -279 422 -453 876 -530 1380 -40 263 -37 759 6 1000 87 491 227 871
468 1265 141 230 433 569 662 768 80 70 222 178 292 223 59 38 115 36 150 -6z
m1068 -140 c301 -45 538 -201 720 -474 38 -57 83 -112 100 -122 56 -35 115
-19 115 32 0 23 -16 47 -72 107 -79 84 -138 182 -138 230 0 62 91 64 160 2 31
-27 109 -152 153 -242 80 -168 130 -333 147 -495 16 -150 56 -263 94 -263 45
0 45 73 2 293 -37 190 -38 200 -23 221 18 24 50 14 65 -20 7 -14 12 -49 12
-78 0 -93 48 -116 85 -40 11 23 33 69 50 104 101 212 357 348 577 306 97 -19
148 -45 218 -112 200 -191 180 -529 -44 -731 -73 -66 -119 -86 -206 -91 -63
-4 -85 -1 -128 18 -57 24 -135 101 -157 153 -52 126 -5 295 100 354 42 24 114
30 157 14 62 -24 95 -91 68 -142 -25 -46 -110 -60 -141 -23 -30 36 -104 -4
-115 -62 -5 -25 0 -38 23 -63 32 -36 77 -47 148 -37 116 18 204 185 160 303
-67 180 -280 206 -434 53 -99 -98 -155 -226 -156 -355 0 -71 4 -88 32 -145 36
-74 63 -97 146 -128 32 -12 75 -31 95 -41 83 -42 167 -160 191 -266 48 -211
28 -631 -38 -807 -77 -206 -172 -309 -352 -381 -102 -40 -193 -58 -319 -64
-267 -12 -467 84 -568 274 -41 78 -56 126 -86 288 -45 237 -60 357 -60 505 -1
198 24 290 100 365 39 39 151 99 227 122 27 8 60 25 73 38 52 52 18 198 -62
263 -44 36 -63 41 -334 76 -227 30 -356 59 -402 89 -42 29 -57 77 -34 112 25
38 58 41 125 11 70 -31 92 -32 116 -6 27 30 17 141 -19 207 -61 112 -193 241
-301 296 -131 65 -279 75 -386 25 -167 -77 -244 -289 -164 -447 42 -84 130
-140 218 -141 90 0 134 35 174 139 16 42 16 44 -2 57 -10 8 -31 14 -46 14 -38
0 -110 27 -136 52 -79 74 -25 222 91 248 118 26 197 -40 226 -188 40 -203 -51
-392 -230 -476 -60 -28 -73 -30 -180 -31 -107 0 -119 2 -174 29 -129 63 -210
178 -235 336 -11 70 1 205 26 285 16 54 78 189 97 213 44 56 126 137 166 162
121 78 291 104 485 75z m801 -1205 c1 0 7 -13 14 -30 17 -40 -1 -84 -41 -101
-36 -14 -70 -2 -94 35 -14 21 -15 31 -5 60 13 41 49 57 95 44 16 -4 30 -8 31
-8z m-265 -127 c29 -17 59 -67 59 -97 0 -35 -30 -85 -59 -100 -97 -51 -204 30
-171 128 24 75 105 108 171 69z m-359 -103 c14 -7 34 -27 44 -46 18 -32 18
-36 0 -101 -11 -38 -25 -90 -33 -118 -19 -70 -16 -136 7 -186 36 -81 20 -158
-31 -146 -94 21 -222 62 -275 87 -103 49 -154 134 -161 265 -4 75 -3 83 25
127 55 85 194 142 327 134 39 -2 82 -10 97 -16z m2120 -145 c48 -33 102 -143
124 -254 12 -64 15 -120 12 -240 -5 -144 -7 -162 -36 -239 -38 -101 -80 -158
-130 -173 -98 -29 -159 69 -177 284 -9 109 -1 157 26 157 21 0 33 -23 50 -99
16 -74 60 -108 100 -78 37 28 53 80 57 185 4 95 2 106 -22 157 -40 81 -80 85
-114 12 -11 -23 -22 -50 -25 -59 -7 -20 -42 -24 -52 -7 -4 5 -7 52 -7 103 -1
215 85 325 194 251z m-2662 -30 c0 -2 14 -55 31 -117 58 -217 115 -269 359
-332 118 -31 178 -61 214 -109 37 -49 74 -171 87 -293 13 -111 6 -224 -21
-389 -6 -34 -8 -121 -4 -200 7 -163 1 -189 -52 -211 -31 -13 -42 -13 -85 0
-63 18 -108 49 -140 95 -22 34 -24 45 -24 161 1 107 6 145 34 260 66 268 57
373 -38 473 -46 49 -129 103 -206 135 -44 18 -98 28 -201 38 -227 21 -260 46
-229 169 16 60 85 187 134 244 38 44 91 81 118 81 13 0 23 -2 23 -5z m747 -37
c54 -50 8 -136 -66 -124 -40 6 -60 30 -61 74 0 65 78 97 127 50z m75 -218 c26
-52 44 -150 78 -421 37 -286 50 -350 97 -443 53 -107 108 -172 201 -237 185
-131 549 -146 824 -35 150 61 251 148 353 304 70 107 99 132 157 132 87 0 128
-88 94 -201 -26 -84 -58 -133 -140 -215 -149 -148 -419 -301 -640 -363 -60
-17 -114 -35 -119 -40 -29 -29 35 -71 109 -71 70 0 291 79 424 152 136 75 145
79 170 76 22 -3 25 -9 28 -45 8 -104 -100 -203 -319 -293 -88 -37 -137 -49
-243 -60 -88 -9 -129 -31 -134 -73 -5 -41 48 -52 184 -39 139 14 189 32 276
98 40 30 79 54 89 54 48 0 50 -82 2 -133 -37 -39 -136 -108 -198 -140 -73 -36
-148 -56 -253 -67 -126 -13 -157 -33 -117 -74 47 -46 194 -27 341 45 105 51
141 59 150 35 16 -43 -92 -145 -223 -211 -103 -51 -198 -75 -303 -75 -63 0
-117 -8 -205 -31 -66 -17 -148 -32 -183 -32 -56 -2 -66 1 -83 22 -43 52 -33
125 27 190 70 78 100 204 83 344 -31 253 -183 456 -353 474 -48 5 -61 2 -130
-33 -90 -46 -104 -42 -124 32 -11 41 -11 88 0 274 17 299 17 549 -1 620 -8 30
-27 85 -42 122 -15 37 -35 99 -45 138 -20 82 -11 127 34 189 59 81 104 92 134
31z m-712 -326 c78 -22 120 -46 183 -103 102 -94 106 -126 46 -428 -51 -257
-58 -401 -21 -470 25 -47 61 -79 100 -88 61 -14 65 -24 52 -122 -13 -102 -14
-400 -1 -489 15 -103 61 -175 139 -217 72 -39 130 -45 191 -18 68 29 87 28 94
-8 8 -40 -9 -96 -49 -158 -49 -77 -91 -100 -199 -113 -185 -21 -584 -8 -754
24 -149 29 -169 47 -237 211 -64 154 -90 185 -195 234 -50 24 -70 39 -79 62
-18 44 9 100 69 140 62 41 115 37 190 -14 29 -20 60 -37 68 -37 48 0 70 51 36
82 -37 33 -150 88 -209 101 -80 19 -98 30 -118 71 -22 46 -20 101 5 153 33 68
61 82 188 93 127 12 165 28 200 90 34 61 38 135 9 190 -15 30 -31 46 -45 48
-22 3 -22 2 -20 -107 2 -89 -1 -113 -14 -126 -22 -22 -189 -48 -266 -41 -133
11 -173 53 -173 176 1 215 144 559 302 727 134 141 318 190 508 137z m961
-1115 c51 -26 137 -124 170 -194 45 -96 63 -179 63 -290 -1 -116 -23 -190 -75
-243 -173 -177 -458 144 -437 493 7 101 36 174 91 220 55 48 112 52 188 14z
m-338 -46 c28 -26 23 -87 -9 -112 -35 -28 -69 -26 -99 4 -74 73 30 178 108
108z m-17 -287 c29 -29 34 -41 34 -80 0 -36 -6 -52 -31 -81 -28 -31 -36 -35
-81 -35 -44 0 -54 4 -85 35 -33 33 -35 38 -31 87 7 70 47 108 114 108 39 0 51
-5 80 -34z m91 -308 c27 -25 30 -73 7 -106 -11 -16 -25 -22 -53 -22 -48 0 -81
29 -81 72 0 68 78 102 127 56z m3531 -950 l-22 -32 -14 57 c-14 57 -14 58 14
100 l29 42 8 -68 c8 -61 6 -70 -15 -99z m164 99 l26 -22 -59 -89 -60 -89 28
-23 c15 -13 31 -23 35 -24 4 0 31 34 60 75 29 41 57 75 63 75 5 0 21 -9 35
-19 l24 -19 -52 -76 c-29 -41 -52 -79 -52 -83 0 -5 16 -18 36 -31 41 -27 31
-35 111 85 26 40 53 73 58 73 11 -1 55 -35 55 -43 0 -3 -38 -61 -84 -129 -51
-74 -90 -123 -100 -123 -18 0 -336 215 -336 227 0 11 171 258 179 258 3 0 18
-10 33 -23z m-6757 -128 c57 -84 72 -59 -114 -189 -68 -47 -135 -95 -149 -107
-15 -13 -30 -23 -34 -23 -9 0 -58 75 -58 87 0 5 57 46 125 92 68 46 130 90
136 98 10 11 8 20 -10 44 l-22 30 23 19 c13 11 30 19 39 20 8 0 37 -32 64 -71z
m3462 -165 c-3 -3 -12 -4 -19 -1 -8 3 -5 6 6 6 11 1 17 -2 13 -5z m-3209 -156
c87 -83 83 -196 -10 -288 -106 -103 -241 -104 -312 -2 -64 92 -21 218 100 294
53 34 69 38 133 33 44 -3 60 -10 89 -37z m6272 4 c68 -34 97 -115 69 -188 -5
-16 -31 -52 -56 -82 l-46 -53 44 -39 44 -39 -35 -36 -36 -35 -74 66 c-197 176
-230 207 -230 214 0 16 140 165 176 186 46 28 96 30 144 6z m-6965 -164 c34
-15 32 -41 -7 -72 -18 -14 -40 -31 -48 -38 -54 -46 -75 -56 -127 -63 -49 -6
-95 -25 -113 -45 -12 -14 -118 -80 -129 -80 -6 0 -11 5 -11 10 0 25 -38 6 -60
-30 -14 -22 -28 -40 -32 -40 -5 0 -8 -6 -8 -14 0 -8 -25 -39 -55 -70 -32 -32
-58 -68 -61 -85 -5 -26 -2 -32 30 -53 38 -24 49 -47 43 -87 -4 -26 -56 -61
-89 -61 -10 0 -17 -3 -17 -7 1 -5 1 -16 0 -26 -1 -17 -2 -17 -17 -2 -12 12
-13 19 -4 30 15 19 9 69 -10 73 -8 1 -27 -9 -41 -22 -40 -37 -49 -22 -41 65 7
68 13 84 57 151 27 42 64 86 83 99 19 12 38 32 43 43 19 41 38 71 67 101 15
18 39 57 51 88 29 70 84 116 134 111 18 -1 35 -3 40 -3 4 -1 5 -12 1 -25 -3
-14 -3 -34 1 -46 6 -20 12 -21 79 -16 111 9 186 46 186 92 0 19 5 24 27 33 1
1 14 -4 28 -11z m6675 -379 c74 -34 137 -64 139 -66 2 -2 -13 -18 -35 -37
l-39 -34 -37 19 c-21 10 -42 19 -49 19 -11 0 -42 -24 -112 -87 l-38 -34 15
-45 15 -45 -30 -27 c-17 -15 -36 -27 -41 -27 -9 0 -68 183 -118 367 l-18 68
36 29 36 29 71 -33 c38 -18 131 -61 205 -96z m-5381 -37 l34 -28 -47 -199
c-26 -110 -51 -210 -54 -223 l-7 -22 -38 25 c-39 27 -43 40 -28 93 10 32 9 33
-66 92 -42 33 -78 60 -82 60 -3 0 -19 -9 -36 -20 -39 -26 -54 -25 -92 8 l-33
28 128 69 c70 38 156 86 192 106 36 20 72 38 80 38 9 1 31 -12 49 -27z m4831
-75 c0 -2 -9 -53 -20 -113 -11 -60 -20 -114 -20 -119 0 -6 61 -30 135 -55 74
-24 135 -47 135 -51 0 -3 -19 -19 -42 -34 l-41 -27 -100 31 c-55 17 -102 30
-104 28 -2 -3 -7 -21 -10 -41 -4 -29 0 -44 21 -77 30 -44 28 -52 -22 -81 l-30
-18 -111 170 c-61 94 -111 176 -111 183 0 11 53 47 70 47 4 0 29 -32 56 -70
26 -39 51 -67 54 -63 4 5 15 53 24 108 10 55 20 108 23 118 6 23 93 83 93 64z
m-4311 -140 c21 -32 29 -37 51 -32 18 4 31 1 41 -11 12 -14 10 -19 -11 -36
-36 -29 -79 -21 -108 22 -16 24 -32 35 -50 36 -48 2 -52 4 -52 18 0 23 42 47
75 44 22 -2 36 -13 54 -41z m-179 -22 c17 -9 30 -18 30 -21 0 -13 52 -299 55
-302 3 -3 78 119 104 171 8 15 19 27 24 27 13 0 77 -40 77 -48 0 -5 -70 -132
-177 -319 -13 -24 -26 -43 -30 -43 -10 0 -73 41 -73 48 0 22 -42 271 -49 287
-6 16 -18 1 -65 -83 -31 -56 -62 -102 -68 -102 -12 0 -78 39 -78 46 0 2 11 21
23 42 13 20 48 80 77 132 114 206 100 191 150 165z m678 -327 c23 -11 58 -38
77 -61 127 -148 5 -374 -191 -354 -180 19 -278 205 -182 347 65 94 181 121
296 68z m3115 -137 l162 -160 -50 -21 -49 -21 -32 37 -32 37 -89 -36 -88 -35
-3 -50 c-3 -49 -4 -50 -48 -67 -25 -9 -47 -15 -50 -13 -2 3 0 83 6 179 5 96
10 197 10 225 0 50 1 52 38 67 20 9 43 16 50 16 7 1 85 -71 175 -158z m-493
30 c0 -4 -19 -71 -41 -147 -40 -133 -41 -141 -30 -197 7 -32 14 -64 17 -72 6
-15 -21 -30 -66 -37 -21 -3 -25 4 -42 67 -18 68 -23 74 -130 181 -60 61 -106
114 -102 117 5 3 27 10 49 16 l40 11 77 -77 c53 -52 79 -72 82 -62 3 8 17 54
33 104 24 75 32 90 53 96 36 10 60 10 60 0z m-2064 -67 c71 -34 77 -43 52 -82
-20 -32 -20 -32 -46 -14 -70 47 -143 57 -162 21 -15 -27 3 -47 80 -88 102 -54
133 -115 93 -181 -41 -70 -159 -81 -269 -25 -76 40 -85 55 -52 93 25 30 26 31
43 12 46 -51 158 -77 186 -44 19 24 2 44 -77 87 -86 46 -114 77 -114 123 0
118 126 164 266 98z m1423 -68 c6 -8 61 -96 121 -197 118 -195 119 -199 48
-199 -33 0 -40 4 -60 41 l-23 40 -60 -6 c-136 -14 -133 -13 -148 -64 -12 -46
-13 -46 -60 -49 -26 -2 -47 1 -47 5 0 6 101 346 125 420 2 6 21 14 42 16 21 2
41 4 44 5 4 1 12 -4 18 -12z m-801 -43 c16 -24 54 -90 113 -197 9 -17 20 -31
25 -33 5 -1 44 54 87 122 75 120 80 125 112 125 19 0 37 -4 40 -10 3 -5 3
-102 -1 -215 l-7 -205 -43 0 -43 0 -3 123 -3 122 -49 -80 c-91 -148 -95 -148
-167 -20 -30 52 -57 95 -61 95 -4 0 -9 -51 -10 -112 l-3 -113 -44 0 -45 0 3
205 c1 113 5 208 7 212 3 5 20 8 39 8 25 0 38 -7 53 -27z m2122 -563 c12 -8 9
-10 -13 -10 -16 0 -26 4 -22 10 8 12 16 12 35 0z m-761 -94 c-12 -25 -29 -35
-29 -17 0 5 -8 11 -17 14 -13 2 -9 8 17 19 19 8 36 14 38 13 1 -1 -3 -14 -9
-29z m117 22 c11 -17 13 -48 7 -75 -6 -29 -23 -30 -23 -2 0 15 -5 19 -17 15
-10 -3 -30 -8 -45 -12 -16 -3 -28 -10 -28 -15 0 -5 -8 -9 -17 -9 -14 0 -13 3
5 20 12 12 22 28 22 36 0 12 7 14 30 9 25 -6 30 -4 30 13 0 31 22 43 36 20z
m954 -12 c0 -3 -4 -8 -10 -11 -5 -3 -10 -1 -10 4 0 6 5 11 10 11 6 0 10 -2 10
-4z m-923 -68 c-3 -8 -6 -5 -6 6 -1 11 2 17 5 13 3 -3 4 -12 1 -19z m-113 -33
c-22 -17 -34 -19 -34 -6 0 5 8 12 18 14 32 9 36 7 16 -8z m233 -67 c-3 -8 -6
-5 -6 6 -1 11 2 17 5 13 3 -3 4 -12 1 -19z m1308 -8 c3 -5 -3 -10 -14 -10 -12
0 -21 5 -21 10 0 6 6 10 14 10 8 0 18 -4 21 -10z m-1265 -70 c0 -5 -4 -10 -10
-10 -5 0 -10 5 -10 10 0 6 5 10 10 10 6 0 10 -4 10 -10z"/>
<path d="M3256 10274 c-3 -9 -4 -19 -1 -24 3 -4 -2 -10 -10 -14 -8 -3 -15 -15
-15 -27 0 -14 -5 -19 -14 -16 -8 3 -18 -5 -25 -19 -8 -18 -8 -23 2 -21 6 1 11
-6 11 -15 -1 -10 3 -18 8 -18 6 0 8 9 5 20 -7 28 16 30 30 2 18 -34 16 -41 -7
-35 -11 3 -20 0 -20 -6 0 -6 5 -11 10 -11 6 0 10 -7 10 -15 0 -8 5 -15 11 -15
6 0 9 7 5 15 -3 8 -1 15 5 15 6 0 8 17 5 40 -2 22 0 40 5 40 5 0 9 -8 10 -17
0 -10 3 -13 5 -6 3 7 12 9 20 6 8 -3 21 2 28 12 7 10 18 15 24 11 7 -4 12 -3
12 3 0 18 -18 21 -33 6 -17 -16 -45 -19 -62 -7 -16 11 -16 52 1 83 12 25 12
29 0 29 -7 0 -17 -7 -20 -16z"/>
<path d="M2898 10153 c7 -3 16 -2 19 1 4 3 -2 6 -13 5 -11 0 -14 -3 -6 -6z"/>
<path d="M3118 10030 c-5 -17 19 -46 30 -36 3 4 2 10 -4 14 -6 4 -13 14 -16
22 -4 13 -5 13 -10 0z"/>
<path d="M3031 10014 c0 -11 3 -14 6 -6 3 7 2 16 -1 19 -3 4 -6 -2 -5 -13z"/>
<path d="M3020 9986 c0 -2 8 -10 18 -17 15 -13 16 -12 3 4 -13 16 -21 21 -21
13z"/>
<path d="M2890 9908 c0 -26 -10 -43 -27 -49 -9 -3 -7 -11 5 -27 16 -20 18 -21
19 -5 1 10 6 37 11 61 5 23 5 42 1 42 -5 0 -9 -10 -9 -22z"/>
<path d="M2767 9873 c-4 -3 -7 -11 -7 -17 0 -6 5 -5 12 2 6 6 9 14 7 17 -3 3
-9 2 -12 -2z"/>
<path d="M2834 9821 c21 -23 26 -26 26 -11 0 5 -10 15 -22 21 -23 12 -23 12
-4 -10z"/>
<path d="M2663 9776 c0 -15 5 -26 13 -26 20 0 39 -41 24 -50 -7 -4 -9 -13 -6
-19 4 -6 11 -9 16 -6 5 3 12 0 16 -6 10 -17 24 11 14 30 -4 9 -14 29 -21 45
-8 16 -20 31 -29 34 -8 3 -18 10 -21 15 -4 5 -6 -3 -6 -17z"/>
<path d="M2530 9764 c0 -14 3 -14 15 -4 8 7 15 14 15 16 0 2 -7 4 -15 4 -8 0
-15 -7 -15 -16z"/>
<path d="M2645 9690 c3 -5 8 -10 11 -10 2 0 4 5 4 10 0 6 -5 10 -11 10 -5 0
-7 -4 -4 -10z"/>
<path d="M2780 9690 c0 -5 5 -10 11 -10 5 0 7 5 4 10 -3 6 -8 10 -11 10 -2 0
-4 -4 -4 -10z"/>
<path d="M2627 9670 c9 -10 10 -17 2 -27 -9 -9 -7 -14 5 -19 13 -5 14 -9 5
-20 -8 -10 -8 -14 0 -14 6 0 11 -7 11 -15 0 -8 -4 -15 -10 -15 -5 0 -10 -4
-10 -10 0 -5 7 -7 15 -4 8 4 15 15 15 26 0 11 7 27 16 35 13 13 13 17 2 24 -9
6 -7 9 10 9 31 0 28 17 -5 22 -16 3 -37 9 -48 13 -16 6 -18 5 -8 -5z"/>
<path d="M2460 9660 c0 -5 5 -10 11 -10 5 0 7 5 4 10 -3 6 -8 10 -11 10 -2 0
-4 -4 -4 -10z"/>
<path d="M2520 9630 c0 -5 5 -10 11 -10 5 0 7 5 4 10 -3 6 -8 10 -11 10 -2 0
-4 -4 -4 -10z"/>
<path d="M2588 9623 c7 -3 16 -2 19 1 4 3 -2 6 -13 5 -11 0 -14 -3 -6 -6z"/>
<path d="M2420 9545 c7 -8 19 -15 27 -15 13 0 13 3 3 15 -7 8 -19 15 -27 15
-13 0 -13 -3 -3 -15z"/>
<path d="M2426 9473 c4 -16 11 -30 16 -31 4 -2 6 -8 2 -13 -3 -5 -1 -9 4 -9
16 0 21 12 12 29 -5 9 -11 24 -14 34 -9 29 -27 20 -20 -10z"/>
<path d="M2387 9430 c-18 -42 -11 -80 15 -80 7 0 7 4 -1 14 -9 10 -9 15 -1 18
7 2 10 21 8 46 l-3 43 -18 -41z"/>
<path d="M2240 9409 c0 -5 5 -7 10 -4 6 3 10 8 10 11 0 2 -4 4 -10 4 -5 0 -10
-5 -10 -11z"/>
<path d="M2215 9310 c-3 -5 -1 -10 4 -10 6 0 11 5 11 10 0 6 -2 10 -4 10 -3 0
-8 -4 -11 -10z"/>
<path d="M1975 9210 c3 -30 13 -62 22 -70 14 -13 15 -13 8 5 -4 11 -11 40 -16
64 -13 64 -21 65 -14 1z"/>
<path d="M2115 9229 c-10 -15 3 -25 16 -12 7 7 7 13 1 17 -6 3 -14 1 -17 -5z"/>
<path d="M2050 9215 c7 -8 17 -15 22 -15 6 0 5 7 -2 15 -7 8 -17 15 -22 15 -6
0 -5 -7 2 -15z"/>
<path d="M2100 9159 c0 -5 5 -7 10 -4 6 3 10 8 10 11 0 2 -4 4 -10 4 -5 0 -10
-5 -10 -11z"/>
<path d="M2020 9131 c0 -5 7 -14 15 -21 16 -14 18 -10 9 14 -6 17 -24 22 -24
7z"/>
<path d="M2050 9072 c6 -13 14 -21 18 -18 3 4 -2 14 -12 24 -18 16 -18 16 -6
-6z"/>
<path d="M2080 9053 c0 -17 19 -35 29 -29 8 5 7 11 -3 22 -16 15 -26 18 -26 7z"/>
<path d="M1830 9024 c0 -8 5 -12 10 -9 6 4 8 11 5 16 -9 14 -15 11 -15 -7z"/>
<path d="M3290 9599 c0 -5 5 -7 10 -4 6 3 10 8 10 11 0 2 -4 4 -10 4 -5 0 -10
-5 -10 -11z"/>
<path d="M3070 9290 c0 -5 5 -10 10 -10 6 0 10 5 10 10 0 6 -4 10 -10 10 -5 0
-10 -4 -10 -10z"/>
<path d="M2892 9190 c0 -14 2 -19 5 -12 2 6 2 18 0 25 -3 6 -5 1 -5 -13z"/>
<path d="M5910 6565 c-8 -2 -49 -9 -90 -15 -180 -30 -313 -97 -346 -177 -20
-46 -17 -124 5 -175 53 -124 208 -204 456 -234 186 -24 427 6 544 66 107 54
140 148 81 230 -33 46 -173 90 -351 110 -113 13 -291 -7 -362 -39 -107 -49
-117 -147 -18 -180 44 -14 51 -8 51 43 0 23 6 50 13 59 34 46 172 59 331 31
152 -26 216 -66 216 -134 0 -51 -33 -80 -89 -80 -36 0 -49 6 -89 44 -55 51
-115 76 -187 76 -96 0 -133 -45 -76 -93 36 -30 39 -52 10 -68 -47 -24 -210 26
-296 91 -76 57 -113 113 -113 170 0 125 152 185 470 184 182 -1 244 -11 380
-65 83 -33 110 -33 110 0 0 99 -149 150 -460 156 -96 2 -182 2 -190 0z"/>
<path d="M4313 5575 c-43 -19 -68 -57 -53 -84 29 -56 162 -31 193 36 10 22 8
28 -12 44 -27 22 -82 24 -128 4z"/>
<path d="M5352 4487 c-23 -28 -25 -73 -4 -120 25 -56 54 -75 88 -56 21 11 24
20 24 64 0 38 -6 62 -23 86 -25 37 -66 50 -85 26z"/>
<path d="M2202 2769 c-47 -24 -109 -90 -114 -123 -5 -29 18 -73 42 -81 62 -20
190 86 190 158 0 25 -40 67 -64 67 -6 0 -30 -10 -54 -21z"/>
<path d="M8461 2715 l-42 -46 48 -44 c26 -24 53 -44 59 -45 16 0 72 73 80 104
9 37 -28 76 -71 76 -26 0 -41 -10 -74 -45z"/>
<path d="M8090 2308 c0 -5 9 -41 21 -79 l21 -69 37 30 c69 54 69 54 -9 93 -38
19 -70 31 -70 25z"/>
<path d="M2802 2140 l-63 -38 46 -38 c26 -21 49 -33 54 -28 4 5 14 32 21 59 6
28 14 58 17 68 6 24 -4 21 -75 -23z"/>
<path d="M3813 1626 c-62 -28 -92 -123 -61 -190 12 -28 80 -66 117 -66 58 0
116 58 126 126 14 92 -95 169 -182 130z"/>
<path d="M6900 1524 c0 -86 -2 -85 85 -49 l38 16 -54 55 c-29 30 -57 54 -61
54 -4 0 -8 -34 -8 -76z"/>
<path d="M5887 1286 c-24 -91 -26 -88 41 -80 31 3 58 8 60 9 5 4 -71 135 -78
135 -3 0 -14 -29 -23 -64z"/>
</g>
</svg>
