<?xml version="1.0" standalone="no"?>
<!DOCTYPE svg PUBLIC "-//W3C//DTD SVG 20010904//EN"
 "http://www.w3.org/TR/2001/REC-SVG-20010904/DTD/svg10.dtd">
<svg  version="1.0" xmlns="http://www.w3.org/2000/svg"
 width="93" height="40" viewBox="0 0 93 40"
 preserveAspectRatio="xMidYMid meet">

<g transform="translate(0.000000,380.000000) scale(0.100000,-0.100000)"
fill="#000000" stroke="none">
<path d="M1134 3616 c-182 -35 -300 -142 -366 -332 -65 -188 -42 -350 66 -462
51 -54 95 -77 172 -91 151 -28 303 51 367 189 27 59 30 225 4 281 -26 58 -70
89 -125 89 -162 0 -193 -210 -34 -235 69 -11 85 -22 77 -53 -20 -81 -74 -127
-148 -126 -149 2 -241 151 -192 309 24 74 87 145 157 175 44 19 65 22 139 18
122 -6 196 -43 304 -152 95 -96 135 -168 135 -242 0 -78 -28 -91 -114 -53 -27
12 -55 17 -67 14 -27 -9 -41 -48 -29 -80 17 -46 104 -70 370 -105 85 -11 174
-25 198 -31 60 -16 107 -71 123 -144 18 -81 5 -100 -96 -142 -122 -50 -166
-82 -197 -138 -59 -108 -61 -280 -8 -585 33 -192 41 -222 77 -293 84 -168 269
-251 505 -226 395 41 548 256 548 769 -1 271 -58 402 -202 464 -138 59 -166
87 -188 193 -38 181 132 423 297 423 54 0 82 -11 126 -50 83 -73 85 -190 4
-275 -30 -31 -54 -45 -82 -51 -53 -10 -115 12 -135 48 -13 25 -13 31 0 55 22
40 60 50 104 29 31 -15 40 -15 63 -4 38 18 52 61 32 96 -19 35 -82 57 -132 48
-119 -22 -178 -198 -108 -321 64 -111 196 -150 309 -91 82 43 163 144 197 245
27 82 18 218 -20 294 -147 296 -572 244 -725 -88 -22 -47 -47 -88 -55 -91 -27
-11 -45 16 -45 65 0 48 -21 91 -44 91 -26 0 -26 -31 -1 -159 39 -201 36 -275
-10 -257 -27 10 -53 86 -65 186 -13 106 -39 217 -71 300 -39 102 -122 253
-163 296 -56 58 -116 71 -133 28 -10 -26 40 -115 106 -193 34 -38 61 -78 61
-88 0 -28 -20 -43 -56 -43 -38 0 -67 27 -132 124 -94 142 -243 265 -392 324
-126 50 -291 69 -406 48z m1545 -1242 c107 -22 149 -42 167 -76 34 -66 0 -72
-136 -22 -145 53 -463 43 -571 -18 -105 -59 -65 -183 82 -258 70 -36 140 -54
174 -46 32 8 32 26 0 56 -34 32 -31 48 12 66 64 27 159 2 214 -57 62 -67 172
-6 124 67 -23 35 -85 60 -178 73 -112 16 -177 14 -217 -7 -31 -15 -36 -23 -40
-62 -5 -42 -7 -45 -34 -43 -37 3 -76 39 -76 71 0 31 50 78 98 92 129 37 279
33 444 -11 88 -24 124 -52 134 -106 15 -79 -46 -138 -181 -174 -119 -33 -358
-33 -468 -1 -180 51 -266 134 -267 252 0 107 107 179 310 209 41 6 86 13 100
15 45 8 233 -4 309 -20z"/>
<path d="M1920 2635 c-20 -24 -15 -67 10 -87 23 -18 51 -17 78 4 17 14 15 63
-4 82 -20 20 -68 21 -84 1z"/>
<path d="M1683 2526 c-22 -19 -28 -32 -28 -66 0 -100 132 -126 171 -34 38 90
-68 164 -143 100z"/>
<path d="M1335 2460 c-129 -26 -196 -90 -196 -188 -1 -60 33 -151 69 -184 38
-36 72 -52 192 -86 114 -34 130 -31 130 20 0 16 -7 45 -15 65 -21 49 -19 119
5 195 20 65 25 124 12 145 -22 35 -111 50 -197 33z"/>
<path d="M3123 2335 c-41 -29 -72 -159 -58 -244 9 -53 38 -57 55 -7 6 18 20
42 31 52 25 22 45 12 74 -37 28 -48 28 -187 0 -244 -38 -76 -91 -55 -119 45
-18 65 -41 79 -52 34 -10 -39 13 -210 35 -258 23 -52 45 -70 86 -70 41 0 70
24 99 84 41 82 51 137 51 290 0 173 -21 258 -80 328 -40 46 -81 56 -122 27z"/>
<path d="M998 2295 c-38 -26 -115 -133 -143 -200 -17 -42 -22 -105 -10 -125
15 -24 77 -40 185 -49 90 -7 121 -14 176 -40 99 -46 156 -93 189 -153 25 -45
29 -64 29 -123 -1 -38 -8 -101 -17 -140 -41 -180 -47 -215 -47 -289 0 -62 4
-86 22 -117 43 -76 178 -115 208 -59 5 10 10 85 10 167 0 81 5 166 10 188 14
56 14 272 0 342 -22 114 -59 181 -113 209 -17 9 -74 29 -127 44 -119 34 -168
59 -208 105 -41 46 -56 77 -72 145 -15 67 -36 120 -47 120 -5 0 -25 -11 -45
-25z"/>
<path d="M1585 2284 c-24 -25 -16 -75 16 -93 24 -13 29 -13 53 2 33 22 37 80
7 97 -28 15 -57 12 -76 -6z"/>
<path d="M1656 2119 c-36 -28 -66 -90 -66 -137 0 -21 18 -90 40 -152 47 -137
59 -231 49 -390 -19 -316 -21 -406 -10 -447 14 -52 30 -54 101 -18 56 29 105
32 157 10 90 -38 162 -129 209 -265 20 -56 25 -91 25 -163 0 -109 -16 -160
-67 -222 -49 -61 -56 -114 -19 -150 24 -25 31 -27 78 -21 29 4 88 16 132 27
44 12 131 24 194 29 107 7 118 10 205 53 97 49 186 123 186 157 0 29 -33 26
-94 -9 -108 -61 -264 -82 -301 -41 -29 32 -3 50 91 61 44 6 97 15 119 20 62
17 171 78 226 127 45 40 50 49 47 81 -4 49 -27 51 -81 7 -63 -51 -121 -74
-224 -86 -113 -14 -157 -5 -161 32 -4 37 26 54 124 67 96 12 153 30 254 79 93
45 176 123 185 175 14 72 -24 76 -134 12 -102 -59 -280 -126 -352 -132 -40 -4
-64 -1 -87 11 -57 29 -40 46 84 81 166 48 382 168 504 282 77 71 124 162 124
240 1 48 -2 58 -28 80 -23 20 -37 24 -64 20 -45 -8 -56 -18 -120 -115 -118
-180 -269 -265 -520 -293 -212 -24 -392 29 -503 148 -104 111 -130 185 -169
484 -39 297 -51 349 -84 371 -16 11 -21 10 -50 -13z"/>
<path d="M950 1849 c-133 -26 -248 -134 -336 -314 -80 -164 -114 -281 -114
-393 0 -73 16 -104 63 -123 58 -24 252 -12 282 17 11 11 15 38 15 99 0 96 11
112 47 71 19 -22 23 -39 23 -88 0 -110 -45 -150 -179 -162 -124 -11 -166 -47
-166 -143 0 -47 4 -58 26 -77 15 -13 46 -26 70 -30 87 -14 206 -96 192 -132
-11 -29 -51 -27 -100 4 -27 17 -60 34 -74 37 -56 14 -143 -62 -137 -119 3 -27
11 -35 72 -66 79 -40 101 -68 148 -183 59 -144 93 -165 290 -187 112 -12 480
-13 551 -1 81 13 156 106 157 194 0 42 -6 44 -67 21 -92 -36 -201 13 -249 112
-28 58 -29 60 -29 249 0 104 2 215 5 245 l5 55 -54 28 c-100 55 -114 150 -61
420 45 231 47 257 20 311 -57 119 -234 187 -400 155z m185 -262 c26 -19 13
-62 -25 -82 -65 -34 -146 -4 -121 44 24 44 107 66 146 38z"/>
<path d="M1807 945 c-65 -33 -97 -109 -97 -224 1 -292 240 -520 362 -346 104
148 17 486 -145 564 -51 25 -82 26 -120 6z m132 -249 c31 -33 39 -100 16 -126
-25 -27 -39 -25 -69 11 -19 22 -26 42 -26 73 0 67 37 87 79 42z"/>
<path d="M1570 900 c-11 -11 -20 -29 -20 -40 0 -11 9 -29 20 -40 11 -11 29
-20 40 -20 11 0 29 9 40 20 11 11 20 29 20 40 0 11 -9 29 -20 40 -11 11 -29
20 -40 20 -11 0 -29 -9 -40 -20z"/>
<path d="M1544 690 c-55 -23 -71 -99 -30 -147 53 -61 156 -21 156 62 0 63 -69
110 -126 85z"/>
<path d="M1642 424 c-41 -29 -20 -104 29 -104 39 0 59 19 59 55 0 33 -27 65
-55 65 -6 0 -21 -7 -33 -16z"/>
</g>
</svg>
