<?xml version="1.0" standalone="no"?>
<!DOCTYPE svg PUBLIC "-//W3C//DTD SVG 20010904//EN"
 "http://www.w3.org/TR/2001/REC-SVG-20010904/DTD/svg10.dtd">
<svg version="1.0" xmlns="http://www.w3.org/2000/svg"
 width="100.000000pt" height="70.000000pt" viewBox="0 0 100.000000 70.000000"
 preserveAspectRatio="xMidYMid meet">
<metadata>
Created by potrace 1.16, written by Peter Selinger 2001-2019
</metadata>
<g transform="translate(0.000000,70.000000) scale(0.012837,-0.013011)"
fill="#000000" stroke="none">
<path d="M3164 5025 c-128 -28 -220 -103 -280 -229 -51 -107 -71 -217 -55
-305 22 -123 105 -225 204 -252 23 -6 74 -9 113 -7 91 6 163 44 216 113 42 55
58 109 58 192 0 77 -15 127 -50 166 -25 29 -34 32 -83 32 -63 0 -99 -24 -117
-81 -22 -65 33 -134 107 -134 49 0 58 -13 45 -58 -13 -44 -58 -88 -99 -98 -30
-8 -98 11 -135 37 -15 11 -39 44 -54 75 -23 46 -26 63 -20 108 11 99 55 165
136 206 133 68 329 2 450 -151 64 -81 81 -122 78 -182 l-3 -52 -40 1 c-22 0
-55 7 -73 15 -43 18 -67 4 -67 -41 0 -63 65 -87 330 -121 190 -25 236 -42 264
-96 47 -93 35 -150 -36 -173 -71 -23 -150 -69 -181 -104 -17 -20 -39 -62 -48
-93 -30 -102 -9 -376 47 -618 38 -162 145 -271 300 -305 80 -18 256 -8 340 19
186 59 287 189 324 414 18 109 20 363 4 439 -28 129 -86 200 -198 243 -75 28
-102 52 -126 107 -66 159 73 407 239 425 89 10 171 -55 183 -147 4 -30 -1 -53
-22 -96 -23 -47 -35 -60 -73 -76 -76 -34 -152 -7 -152 53 0 31 23 59 48 59 8
0 30 -5 48 -12 42 -15 81 1 90 37 14 55 -32 95 -108 95 -87 0 -163 -128 -139
-233 22 -94 113 -167 206 -167 88 1 202 90 253 198 24 50 27 69 27 162 0 95
-3 110 -27 155 -72 136 -217 200 -367 161 -126 -32 -227 -121 -286 -251 -26
-55 -40 -75 -54 -75 -22 0 -31 19 -31 66 0 42 -15 74 -36 74 -25 0 -25 -22 -4
-131 32 -166 36 -222 15 -239 -15 -13 -19 -12 -36 9 -23 29 -35 73 -49 181
-15 127 -44 222 -110 355 -67 137 -118 196 -170 198 -20 1 -36 -4 -43 -14 -16
-25 31 -111 98 -183 59 -63 64 -76 39 -100 -36 -37 -82 -8 -154 96 -63 92
-173 198 -253 246 -142 85 -334 120 -483 87z m1388 -1110 c94 -16 149 -41 165
-75 10 -20 10 -28 -2 -39 -12 -12 -21 -11 -64 7 -81 35 -170 52 -280 52 -224
0 -341 -43 -341 -127 0 -69 46 -120 150 -167 76 -34 120 -41 145 -22 20 16 20
16 -7 39 -50 41 -26 70 56 69 59 0 98 -17 135 -56 18 -19 35 -26 62 -26 45 0
61 18 57 62 -6 62 -104 98 -270 98 -62 0 -80 -4 -102 -21 -16 -13 -26 -30 -25
-43 3 -38 -1 -46 -20 -46 -29 0 -71 39 -71 65 0 30 48 71 103 87 73 22 269 16
364 -11 104 -29 133 -54 133 -114 0 -84 -70 -127 -247 -154 -246 -37 -491 34
-552 160 -80 165 87 274 419 276 63 0 150 -6 192 -14z"/>
<path d="M3672 4047 c-47 -50 -12 -137 54 -137 73 0 113 90 61 138 -32 30 -87
29 -115 -1z"/>
<path d="M3325 3983 c-93 -28 -135 -79 -135 -163 1 -87 42 -165 105 -198 57
-29 219 -71 232 -60 17 14 16 67 -2 98 -20 36 -19 83 7 182 25 97 19 131 -28
148 -37 14 -121 11 -179 -7z"/>
<path d="M4974 3890 c-38 -15 -58 -76 -59 -175 0 -72 3 -90 15 -92 9 -2 23 14
35 40 15 32 26 42 44 42 86 0 85 -283 -1 -293 -30 -4 -41 11 -64 89 -23 78
-39 58 -38 -47 1 -140 44 -234 106 -234 37 0 85 61 110 141 19 61 23 96 23
199 0 152 -25 247 -79 304 -34 36 -53 42 -92 26z"/>
<path d="M3035 3817 c-69 -71 -117 -169 -113 -228 3 -37 7 -46 33 -58 17 -8
73 -18 126 -22 187 -15 333 -109 358 -231 12 -56 7 -95 -39 -313 -24 -110 -22
-187 7 -235 35 -59 141 -91 175 -52 12 13 18 55 23 182 14 313 12 449 -8 510
-36 104 -68 130 -212 169 -151 42 -210 96 -240 224 -20 83 -31 107 -47 107 -7
0 -35 -24 -63 -53z"/>
<path d="M3638 3673 c-59 -64 -61 -95 -13 -240 50 -147 58 -226 44 -408 -13
-173 -9 -369 7 -385 9 -9 25 -5 62 14 54 27 112 33 156 16 38 -14 111 -85 141
-136 84 -144 93 -333 20 -428 -62 -81 -71 -120 -35 -156 26 -26 66 -25 161 0
41 11 126 25 189 30 105 8 122 13 198 50 117 58 200 142 163 164 -5 3 -48 -13
-96 -36 -70 -33 -100 -42 -159 -46 -59 -4 -75 -1 -89 13 -34 34 -22 41 107 60
185 28 371 163 316 230 -14 17 -33 9 -91 -37 -44 -36 -107 -55 -202 -64 -76
-6 -127 5 -127 29 0 29 39 49 112 58 154 19 316 97 372 178 28 41 35 98 12
107 -8 3 -61 -19 -119 -50 -129 -67 -292 -121 -340 -112 -18 3 -42 13 -53 21
-18 14 -18 16 -1 29 10 8 48 21 85 31 83 20 231 89 324 151 153 102 233 201
245 304 5 45 3 51 -25 79 -17 17 -39 31 -50 31 -30 0 -77 -44 -117 -110 -72
-119 -207 -210 -362 -244 -42 -9 -118 -16 -180 -16 -172 0 -263 31 -361 124
-59 56 -112 149 -130 231 -6 28 -21 127 -32 220 -39 316 -63 371 -132 298z"/>
<path d="M2960 3429 c-116 -46 -238 -213 -304 -414 -30 -95 -49 -208 -41 -245
9 -39 47 -71 97 -81 48 -8 196 7 215 22 7 7 13 43 15 92 4 97 19 110 49 42 22
-49 20 -84 -8 -138 -18 -36 -59 -53 -148 -62 -83 -8 -100 -16 -125 -58 -36
-58 -21 -137 29 -155 14 -5 45 -15 68 -21 57 -16 137 -71 141 -98 5 -37 -33
-39 -90 -4 -56 35 -91 39 -131 13 -38 -26 -56 -52 -57 -83 0 -31 20 -50 82
-77 54 -23 81 -60 127 -173 18 -42 42 -86 55 -98 40 -38 140 -52 396 -58 276
-6 335 1 375 49 46 55 73 129 56 157 -7 10 -19 10 -62 -4 -65 -20 -119 -10
-169 32 -63 53 -74 90 -78 275 -2 101 0 187 7 219 13 59 9 67 -49 97 -87 44
-99 130 -51 370 17 85 31 181 31 213 0 56 -3 62 -42 105 -67 73 -125 97 -238
101 -79 3 -104 -1 -150 -18z"/>
<path d="M3781 2633 c-77 -38 -107 -206 -60 -346 68 -206 242 -286 315 -145
62 120 14 350 -93 448 -67 62 -103 72 -162 43z"/>
<path d="M3525 2385 c-52 -51 -17 -135 56 -135 52 0 79 27 79 78 0 75 -83 110
-135 57z"/>
<path d="M180 1000 l0 -530 65 0 65 0 0 530 0 530 -65 0 -65 0 0 -530z"/>
<path d="M380 1440 l0 -89 56 -98 c200 -346 286 -493 292 -493 4 0 85 135 180
299 l172 299 0 86 0 86 -27 0 c-25 0 -35 -13 -98 -123 -162 -284 -216 -372
-227 -372 -6 0 -53 72 -104 160 -51 88 -116 199 -144 248 -42 72 -55 87 -75
87 -25 0 -25 -1 -25 -90z"/>
<path d="M1150 1000 l0 -531 63 3 62 3 3 528 2 527 -65 0 -65 0 0 -530z"/>
<path d="M4130 1000 l0 -520 65 0 65 0 0 520 0 520 -65 0 -65 0 0 -520z"/>
<path d="M4546 1284 c-199 -218 -216 -239 -216 -273 1 -33 21 -58 216 -276
118 -132 222 -246 231 -252 25 -19 156 -18 151 1 -2 8 -106 130 -231 271
l-229 257 20 22 c10 11 112 123 226 249 113 125 206 229 206 232 0 3 -35 5
-79 5 l-78 0 -217 -236z"/>
<path d="M6950 1465 l0 -55 185 0 185 0 0 55 0 55 -185 0 -185 0 0 -55z"/>
<path d="M1633 1235 c-101 -28 -193 -109 -241 -213 -24 -51 -27 -69 -27 -167
0 -98 3 -116 27 -167 74 -158 241 -249 403 -219 75 14 120 37 174 88 24 24 46
43 48 43 2 0 3 -27 3 -60 l0 -60 60 0 60 0 0 375 0 375 -60 0 -60 0 0 -55 c0
-30 -3 -55 -6 -55 -4 0 -27 18 -51 41 -25 22 -65 50 -90 61 -59 26 -172 32
-240 13z m226 -131 c20 -8 53 -32 74 -52 116 -112 115 -289 -3 -395 -55 -50
-103 -67 -187 -67 -73 0 -120 18 -174 67 -157 142 -95 402 109 460 53 14 128
9 181 -13z"/>
<path d="M3264 1241 c-103 -26 -207 -112 -250 -205 -96 -211 -15 -446 186
-540 57 -26 76 -30 150 -30 104 1 167 25 230 89 24 24 47 42 52 39 4 -3 8 -30
8 -60 l0 -54 60 0 60 0 0 375 0 375 -60 0 -60 0 0 -53 c0 -30 -3 -57 -6 -60
-4 -4 -25 12 -46 34 -56 58 -135 92 -222 95 -39 2 -85 0 -102 -5z m221 -142
c96 -50 145 -131 145 -244 -1 -160 -106 -265 -265 -265 -117 0 -201 54 -248
159 -30 68 -22 182 18 246 74 120 228 166 350 104z"/>
<path d="M5197 1240 c-235 -60 -354 -338 -242 -567 109 -222 399 -281 567
-116 l48 47 0 -62 0 -63 63 3 62 3 0 370 0 370 -60 0 -60 0 -5 -58 -5 -58 -44
45 c-24 25 -66 54 -94 66 -57 25 -172 34 -230 20z m230 -146 c100 -48 149
-142 141 -265 -4 -54 -12 -78 -37 -117 -54 -85 -124 -122 -229 -122 -268 0
-369 339 -147 492 78 53 178 58 272 12z"/>
<path d="M6175 1237 c-63 -21 -97 -42 -140 -87 l-40 -41 -5 58 -5 58 -60 0
-60 0 -3 -522 -2 -523 65 0 65 0 0 211 0 212 48 -46 c63 -58 95 -74 180 -89
166 -28 321 60 399 228 25 52 28 71 28 159 0 92 -3 106 -32 167 -66 139 -176
216 -319 224 -50 2 -94 -1 -119 -9z m190 -131 c18 -8 51 -30 73 -50 138 -125
105 -365 -63 -442 -73 -34 -172 -33 -243 2 -57 29 -113 92 -133 151 -19 59 -7
173 25 227 66 114 217 163 341 112z"/>
<path d="M7010 1235 c-148 -42 -246 -156 -271 -315 -26 -170 49 -334 188 -408
111 -59 280 -64 386 -11 45 23 137 106 137 125 0 6 -22 23 -48 37 l-49 26 -29
-30 c-120 -127 -358 -92 -438 64 -15 30 -25 60 -22 66 5 8 105 11 318 11 l311
0 -5 85 c-13 207 -150 351 -344 361 -52 3 -98 -1 -134 -11z m227 -133 c64 -33
123 -115 123 -172 0 -20 -5 -20 -250 -20 l-250 0 6 28 c11 45 52 110 89 138
74 56 199 68 282 26z"/>
<path d="M2230 1225 c0 -9 42 -106 186 -437 l135 -307 -25 -49 c-33 -66 -95
-120 -146 -128 -44 -7 -54 -24 -48 -85 3 -34 3 -34 51 -32 101 3 189 71 250
193 31 62 308 773 324 833 5 15 -3 17 -60 17 l-65 0 -103 -270 c-56 -148 -106
-276 -110 -282 -12 -19 -22 -4 -74 117 -26 61 -57 133 -69 160 -13 28 -45 101
-71 163 l-49 112 -63 0 c-35 0 -63 -2 -63 -5z"/>
</g>
</svg>
